<?xml version="1.0" standalone="no"?>
<!DOCTYPE svg PUBLIC "-//W3C//DTD SVG 1.1//EN" "http://www.w3.org/Graphics/SVG/1.1/DTD/svg11.dtd" >
<svg xmlns="http://www.w3.org/2000/svg">
<metadata></metadata>
<defs>
<font id="qhytsdakxregular" horiz-adv-x="638" >
<font-face units-per-em="2048" ascent="1638" descent="-410" />
<missing-glyph horiz-adv-x="325" />
<glyph horiz-adv-x="0" />
<glyph unicode="&#xd;" horiz-adv-x="325" />
<glyph unicode=" "  horiz-adv-x="325" />
<glyph unicode="&#x09;" horiz-adv-x="325" />
<glyph unicode="&#xa0;" horiz-adv-x="325" />
<glyph unicode="!" horiz-adv-x="292" d="M55 0v174h174v-174h-174zM55 293v1171h174v-1171h-174z" />
<glyph unicode="&#x22;" horiz-adv-x="620" d="M63 965v499h175v-499h-175zM371 965v499h174v-499h-174z" />
<glyph unicode="#" horiz-adv-x="663" d="M37 330v153h69v445h-69v153h69v281h154v-281h133v281h154v-281h74v-153h-74v-445h74v-153h-74v-330h-154v330h-133v-330h-154v330h-69zM260 483h133v445h-133v-445z" />
<glyph unicode="$" horiz-adv-x="626" d="M55 375v65h178v-69q0 -35 26 -60.5t63 -25.5q35 0 60.5 25.5t25.5 60.5v18q-2 2 -5 14q-12 51 -63 132q-20 29 -49 57q-39 37 -53 55q-35 35 -101 115q-39 49 -61 106q-18 45 -19 80v41q2 98 64.5 171t157.5 87v115h71v-113q98 -10 165 -84.5t67 -175.5v-65h-174v69 q0 35 -26 60.5t-60 25.5q-88 0 -89 -75v-17v-18q0 -2 7 -17q16 -43 63 -100q31 -33 103 -113q33 -37 100 -125l39 -53q16 -25 26 -59q13 -49 13 -80l-2 -57q-2 -106 -66.5 -173t-165.5 -77v-115h-71v117q-96 14 -160 88t-64 170z" />
<glyph unicode="%" horiz-adv-x="645" d="M27 883l2 344q0 55 40 95t95 40t95 -40t40 -95v-344q0 -55 -39 -95t-96 -40q-55 0 -96 39.5t-41 95.5zM47 0l455 1362h82l-457 -1362h-80zM119 881q0 -45 45 -45t45 45v348q0 45 -45 45t-45 -45v-348zM334 125l2 344q0 55 40 95t95 40t95 -40t40 -95v-344q0 -55 -39 -95 t-96 -40q-55 0 -96 40t-41 95zM426 123q0 -45 45 -45t45 45v348q0 45 -45 45t-45 -45v-348z" />
<glyph unicode="&#x26;" horiz-adv-x="632" d="M29 252v323q0 57 32.5 111.5t88.5 67.5q-57 10 -89 63t-32 111v286q0 109 76.5 186t185.5 77t185.5 -77t76.5 -186v-94h-176v99q0 35 -25.5 60.5t-62.5 25.5q-35 0 -60.5 -26t-25.5 -60v-295q0 -35 24.5 -60.5t61.5 -25.5h86v104h178v-104h57v-162h-59v-424 q0 -109 -76 -185.5t-186 -76.5q-109 0 -184.5 76.5t-75.5 185.5zM201 248q0 -35 25.5 -60.5t62.5 -25.5t61.5 25.5t24.5 60.5v428h-86q-35 0 -61.5 -30t-26.5 -66v-332z" />
<glyph unicode="'" horiz-adv-x="313" d="M63 965v499h175v-499h-175z" />
<glyph unicode="(" horiz-adv-x="319" d="M27 47l2 1167q0 109 76.5 186t185.5 77v-172q-35 0 -60.5 -26t-25.5 -60v-1176q0 -35 25.5 -60.5t62.5 -25.5v-172q-109 0 -187.5 77t-78.5 185z" />
<glyph unicode=")" horiz-adv-x="374" d="M41 -43q37 0 62.5 25.5t25.5 60.5v1176q0 35 -25.5 60.5t-60.5 25.5v172q109 0 185.5 -77t76.5 -186l2 -1167q0 -109 -77.5 -185.5t-188.5 -76.5v172z" />
<glyph unicode="*" horiz-adv-x="679" d="M41 1255l49 52l213 -152v268h72v-264l225 158l47 -51l-250 -179l238 -167l-47 -52l-213 150v-260h-72v264l-201 -143l-49 51l223 157z" />
<glyph unicode="+" horiz-adv-x="833" d="M35 662v153h315v342h164v-342h309v-153h-309v-355h-164v355h-315z" />
<glyph unicode="," horiz-adv-x="376" d="M33 -205l102 502h195l-154 -502h-143z" />
<glyph unicode="-" d="M61 539v174h514v-174h-514z" />
<glyph unicode="." horiz-adv-x="323" d="M68 0v195h194v-195h-194z" />
<glyph unicode="/" horiz-adv-x="696" d="M20 -205l560 1567h122l-559 -1567h-123z" />
<glyph unicode="0" d="M53 252l2 860q0 109 77 185.5t185 76.5q109 0 186 -76.5t77 -185.5v-860q0 -109 -76 -185.5t-185 -76.5t-187.5 76.5t-78.5 185.5zM231 248q0 -35 26 -60.5t60 -25.5q37 0 63 25.5t26 60.5v868q0 35 -26 60.5t-63 25.5q-35 0 -60.5 -25.5t-25.5 -60.5v-868z" />
<glyph unicode="1" d="M66 1069l307 283h174v-1352h-174v1135l-174 -181z" />
<glyph unicode="2" d="M47 0l2 213q0 135 12 186q20 76 68 144q16 25 98 125q35 35 103 123q20 31 40.5 63.5t28.5 67.5q6 27 4 55q-4 47 -4 61v78q0 35 -25.5 60.5t-62.5 25.5q-35 0 -60.5 -25.5t-25.5 -60.5v-141h-174v137q0 109 77 185.5t185 76.5q109 0 185.5 -76.5t76.5 -185.5v-92 q0 -113 -14 -166q-27 -102 -166 -268q-33 -35 -102 -123q-29 -45 -37 -64q-16 -31 -27 -67q-4 -25 -4 -137v-19h342v-176h-520z" />
<glyph unicode="3" d="M57 1018v94q0 109 77 185.5t185 76.5q109 0 186 -76.5t77 -185.5v-246q0 -57 -32 -110.5t-89 -63.5q55 -12 89 -66.5t34 -111.5v-262q0 -109 -77 -185.5t-185 -76.5q-109 0 -186 76.5t-77 185.5v94h177v-98q0 -35 25.5 -60.5t60.5 -25.5q37 0 62.5 25.5t25.5 60.5v270 q0 37 -27 66.5t-61 29.5h-123v162h123q37 0 61.5 25.5t24.5 60.5v254q0 35 -26 60.5t-60 25.5q-37 0 -63 -25.5t-26 -60.5v-98h-176z" />
<glyph unicode="4" d="M37 205v168l313 981h174v-981h68v-168h-68v-205h-168v205h-319zM221 373h135v512z" />
<glyph unicode="5" d="M45 702v652h494v-154l-314 -2l-2 -342q59 76 154 76q68 0 114 -31t62 -67q12 -27 16 -72q2 -31 4 -60l-2 -450q0 -109 -76.5 -185.5t-185.5 -76.5t-185.5 76.5t-76.5 185.5v94h176v-98q0 -35 25.5 -60.5t62.5 -25.5q35 0 60.5 25.5t25.5 60.5v434q-6 20 -22 53 q-29 27 -74 21q-41 -6 -78 -54h-178z" />
<glyph unicode="6" d="M51 252v860q0 111 72 186.5t180 75.5q109 0 185.5 -76.5t76.5 -185.5v-100h-174v104q0 35 -25.5 60.5t-62.5 25.5q-76 0 -76 -86v-297q57 74 154 76q68 0 113 -30.5t63 -67.5q12 -27 14 -74q2 -31 4 -61v-410q0 -109 -75.5 -185.5t-184.5 -76.5t-186.5 76.5t-77.5 185.5z M227 248q0 -35 26 -60.5t60 -25.5q37 0 62.5 25.5t25.5 60.5v395q-6 23 -22 55q-29 25 -74 21q-41 -6 -78 -53v-418z" />
<glyph unicode="7" d="M43 0l350 1186h-350v168h535v-168l-351 -1186h-184z" />
<glyph unicode="8" d="M53 252v262q0 51 33 106.5t76 69.5q-43 12 -76 67.5t-33 108.5v246q0 109 77 185.5t185 76.5q109 0 186 -76.5t77 -185.5v-246q0 -55 -31 -106q-33 -57 -78 -70q45 -14 77 -68.5t32 -107.5v-262q0 -109 -76 -185.5t-185 -76.5t-186.5 76.5t-77.5 185.5zM229 248 q0 -35 26 -60.5t60 -25.5q37 0 62.5 25.5t25.5 60.5v270q0 35 -25.5 60.5t-62.5 25.5q-35 0 -60.5 -25.5t-25.5 -60.5v-270zM229 862q0 -35 26 -60.5t60 -25.5q37 0 62.5 25.5t25.5 60.5v254q0 35 -25.5 60.5t-62.5 25.5q-35 0 -60.5 -25.5t-25.5 -60.5v-254z" />
<glyph unicode="9" d="M53 702v410q0 109 76 185.5t184 76.5q109 0 187 -76.5t78 -185.5v-860q0 -111 -72 -186.5t-180 -75.5q-109 0 -186 76.5t-77 185.5v100h175v-104q0 -35 25.5 -60.5t62.5 -25.5q76 0 75 86v297q-59 -74 -153 -76q-68 0 -111 29q-49 33 -65 69q-12 27 -15 74q-2 31 -4 61z M227 721q6 -23 23 -55q29 -25 74 -21q40 6 77 53v418q0 35 -25.5 60.5t-60.5 25.5q-37 0 -62.5 -25.5t-25.5 -60.5v-395z" />
<glyph unicode=":" horiz-adv-x="311" d="M59 0v195h195v-195h-195zM59 977v194h195v-194h-195z" />
<glyph unicode=";" horiz-adv-x="364" d="M39 -205l102 502h195l-154 -502h-143zM141 977v194h195v-194h-195z" />
<glyph unicode="&#x3c;" horiz-adv-x="557" d="M35 571l301 541h184l-301 -543l301 -518h-184z" />
<glyph unicode="=" horiz-adv-x="780" d="M41 365v174h719v-174h-719zM41 713v174h719v-174h-719z" />
<glyph unicode="&#x3e;" horiz-adv-x="565" d="M37 41l299 518l-299 543h184l301 -541l-301 -520h-184z" />
<glyph unicode="?" horiz-adv-x="622" d="M49 975v239q0 109 77 186t185 77q109 0 185.5 -77t76.5 -186v-153q0 -125 -14 -176q-31 -119 -65 -174q-10 -16 -101 -125q-16 -20 -45 -68q-33 -53 -33 -67v-160h-170v211q0 68 80 166q35 35 103 123q41 63 61 147q8 29 8 141v140q0 35 -25.5 60.5t-62.5 25.5 q-35 0 -60.5 -26t-25.5 -60v-244h-174zM141 0v174h174v-174h-174z" />
<glyph unicode="@" horiz-adv-x="667" d="M35 279l2 913q0 121 85 206t206 85q123 0 206.5 -82t83.5 -209v-637q0 -25 -2 -39q-16 -154 -147 -147q-41 2 -66 20q-31 25 -30 43v4q-33 -39 -86 -39q-37 0 -61.5 16.5t-35.5 37.5q-4 29 -8 71v131q0 55 19 78q12 12 57 33l92 41q8 4 23 24v78q0 47 -43 47 q-41 0 -41 -47v-61h-96v59q0 61 39.5 102.5t97.5 41.5q59 0 99 -42t40 -102v-401q0 -18 4 -25q10 -12 21 -12q12 0 21 10t9 33v682q0 82 -57 139.5t-139 57.5q-80 0 -137.5 -57.5t-57.5 -139.5l-2 -913q0 -80 58.5 -138.5t140.5 -58.5q51 0 94 24l59 -75q-70 -43 -153 -43 q-121 0 -208 85t-87 206zM276 535q0 -18 14.5 -32t39.5 -9q14 2 32 18q11 8 11 16v201q-8 -4 -21 -16l-47 -21q-29 -12 -29 -61v-96z" />
<glyph unicode="A" d="M57 0v1225q0 109 76 185.5t182 76.5q111 0 189 -76.5t78 -185.5l-2 -1225h-177v516h-172v-516h-174zM231 680h172v549q0 35 -24.5 60.5t-61.5 25.5t-61.5 -25.5t-24.5 -60.5v-549z" />
<glyph unicode="B" horiz-adv-x="651" d="M57 0v1466h262q109 0 186 -76.5t77 -185.5v-301q0 -53 -33 -104t-84 -68q115 -47 115 -172v-307q0 -109 -75 -180.5t-186 -71.5h-262zM233 174h89q35 0 60.5 25.5t25.5 60.5v305q0 78 -78 86h-97v-477zM233 821h97q78 8 78 86v301q0 35 -26 60.5t-60 25.5h-89v-473z" />
<glyph unicode="C" horiz-adv-x="624" d="M49 252l2 962q0 109 77 186t185 77q109 0 184.5 -77t75.5 -186v-712h-174v717q0 35 -24.5 60.5t-61.5 25.5t-61.5 -26t-24.5 -60v-971q0 -35 24.5 -60.5t61.5 -25.5t61.5 25.5t24.5 60.5v65h174v-61q0 -109 -75.5 -185.5t-182.5 -76.5q-111 0 -188.5 76.5t-77.5 185.5z " />
<glyph unicode="D" horiz-adv-x="651" d="M53 0l2 1466h262q109 0 186 -76.5t77 -185.5v-952q0 -109 -75 -180.5t-186 -71.5h-266zM231 172h88q35 0 61 25.5t26 60.5v950q0 35 -26 60.5t-61 25.5h-88v-1122z" />
<glyph unicode="E" horiz-adv-x="538" d="M37 0v1466h475v-163h-301v-451h301v-164h-301v-524h301v-164h-475z" />
<glyph unicode="F" horiz-adv-x="534" d="M37 0v1466h475v-163h-301v-451h301v-164h-301v-688h-174z" />
<glyph unicode="G" horiz-adv-x="620" d="M45 252l2 962q0 109 77 186t185 77q109 0 185.5 -77t76.5 -186v-405h-174v410q0 35 -25.5 60.5t-60.5 25.5q-37 0 -62.5 -26t-25.5 -60v-971q0 -35 25.5 -60.5t62.5 -25.5q35 0 60.5 25.5t25.5 60.5v209h-86v164h260v-369q0 -109 -75.5 -185.5t-184.5 -76.5t-187.5 76.5 t-78.5 185.5z" />
<glyph unicode="H" horiz-adv-x="647" d="M61 0v1466h175v-790h170v790h174v-1466h-174v512h-170v-512h-175z" />
<glyph unicode="I" horiz-adv-x="299" d="M57 0v1464h174v-1464h-174z" />
<glyph unicode="J" horiz-adv-x="659" d="M59 252l2 405h177v-409q0 -35 25.5 -60.5t62.5 -25.5q35 0 60.5 25.5t25.5 60.5v1229h174v-1225q0 -109 -76 -185.5t-184 -76.5q-109 0 -188 76.5t-79 185.5z" />
<glyph unicode="K" horiz-adv-x="628" d="M55 0v1464h174v-684h70q35 0 60.5 25.5t25.5 62.5v598h174v-596q0 -121 -106 -174q47 -18 79.5 -71.5t32.5 -106.5v-518h-178v522q0 37 -25.5 61.5t-62.5 24.5h-70v-608h-174z" />
<glyph unicode="L" horiz-adv-x="501" d="M16 0v1466h174v-1302h302v-164h-476z" />
<glyph unicode="M" horiz-adv-x="997" d="M57 0v1214q0 109 76 186t184 77q51 0 105.5 -29t71.5 -70q16 41 69 70t107 29q109 0 186.5 -77t77.5 -186v-1214h-178v1219q0 35 -24.5 60.5t-61.5 25.5t-61.5 -26t-24.5 -60v-1219h-174v1219q0 35 -28 60.5t-65 25.5q-35 0 -60.5 -26t-25.5 -60v-1219h-174z" />
<glyph unicode="N" horiz-adv-x="645" d="M55 0v1214q0 109 76 186t184 77q111 0 189 -77t78 -186l-2 -1214h-177v1219q0 35 -25.5 60.5t-60.5 25.5q-37 0 -62.5 -26t-25.5 -60v-1219h-174z" />
<glyph unicode="O" horiz-adv-x="651" d="M53 252l2 962q0 109 77 186t185 77q109 0 186 -77t77 -186v-962q0 -109 -76 -185.5t-185 -76.5t-187.5 76.5t-78.5 185.5zM231 248q0 -35 26 -60.5t62 -25.5q35 0 61 25.5t26 60.5v971q0 35 -26 60.5t-61 25.5q-37 0 -62.5 -26t-25.5 -60v-971z" />
<glyph unicode="P" horiz-adv-x="622" d="M49 0v1466h264q109 0 184.5 -76.5t75.5 -185.5v-542q0 -109 -74.5 -180.5t-183.5 -71.5h-92v-410h-174zM223 582h90q37 0 62.5 25.5t25.5 60.5v540q0 35 -25.5 60.5t-62.5 25.5h-90v-712z" />
<glyph unicode="Q" horiz-adv-x="653" d="M51 252l2 962q0 109 77 186t185 77q109 0 186 -77t77 -186v-962q0 -84 -47.5 -150.5t-122.5 -95.5q0 -31 55 -60.5t104 -29.5q16 0 29 4v-172q-12 -1 -25 -1q-121 0 -225 72q-115 79 -117 185q-80 29 -129 96.5t-49 151.5zM229 248q0 -35 26 -60.5t60 -25.5 q37 0 62.5 25.5t25.5 60.5v971q0 35 -25.5 60.5t-62.5 25.5q-35 0 -60.5 -26t-25.5 -60v-971z" />
<glyph unicode="R" horiz-adv-x="645" d="M57 0v1466h262q109 0 186 -76.5t77 -185.5v-301q0 -53 -33 -104t-86 -68q117 -47 117 -172v-559h-172v565q0 78 -78 86h-97v-651h-176zM233 821h95q80 8 80 86v301q0 35 -26 60.5t-63 25.5h-86v-473z" />
<glyph unicode="S" horiz-adv-x="651" d="M57 252v240h179v-244q0 -35 25.5 -60.5t62.5 -25.5q35 0 60.5 25.5t25.5 60.5v69q0 117 -4 138q-12 51 -64 131q-29 43 -101.5 121.5t-101.5 126.5q-49 80 -65 143q-14 53 -15 166v71q2 109 78 186t185 77t185.5 -77t76.5 -186v-239h-174v244q0 35 -26 60.5t-60 25.5 q-37 0 -62.5 -26t-25.5 -60v-58q0 -96 6 -117q12 -53 63 -131q27 -43 100.5 -121.5t102.5 -125.5q46 -76 64 -142q14 -53 15 -144q0 -21 -1 -44l-2 -84q-2 -111 -77 -186.5t-183 -75.5q-109 0 -188 76.5t-79 185.5z" />
<glyph unicode="T" horiz-adv-x="579" d="M25 1303v163h526v-163h-172v-1303h-174v1303h-180z" />
<glyph unicode="U" horiz-adv-x="659" d="M59 252l2 1214h177v-1218q0 -35 25.5 -60.5t62.5 -25.5q35 0 60.5 25.5t25.5 60.5v1218h174v-1214q0 -109 -76 -185.5t-184 -76.5q-109 0 -188 76.5t-79 185.5z" />
<glyph unicode="V" horiz-adv-x="659" d="M61 1466h177v-1304h86q37 0 62.5 25.5t25.5 60.5v1218h174v-1214q0 -109 -76 -180.5t-184 -71.5h-263z" />
<glyph unicode="W" horiz-adv-x="1011" d="M61 252v1214h179v-1218q0 -35 24.5 -60.5t61.5 -25.5t62.5 25.5t25.5 60.5v1218h172v-1218q0 -35 27.5 -60.5t64.5 -25.5t61.5 25.5t24.5 60.5v1218h174v-1214q0 -109 -76 -185.5t-184 -76.5q-51 0 -105.5 28.5t-70.5 69.5q-16 -41 -69.5 -69.5t-104.5 -28.5 q-111 0 -189 76.5t-78 185.5z" />
<glyph unicode="X" horiz-adv-x="655" d="M59 922v544h179v-546q0 -37 25.5 -63t60.5 -26q37 0 62.5 26t25.5 63v546h174v-544q0 -121 -109 -174q47 -18 80 -71.5t33 -107.5v-569h-178v573q0 37 -26 61.5t-60 24.5q-37 0 -62.5 -24.5t-25.5 -61.5v-573h-175v569q0 51 31 101.5t76 74.5q-111 61 -111 177z" />
<glyph unicode="Y" horiz-adv-x="649" d="M55 662l2 804h176v-809q0 -35 26 -60.5t63 -25.5q35 0 60.5 26t25.5 60v809h174v-804q0 -86 -48.5 -154t-125.5 -94v-414h-175v414q-78 29 -128 96.5t-50 151.5z" />
<glyph unicode="Z" horiz-adv-x="563" d="M37 0v166l299 1132h-299v168h483v-168l-299 -1130h299v-168h-483z" />
<glyph unicode="[" horiz-adv-x="419" d="M31 -215l2 1692h364v-172h-188l2 -1348h188v-172h-368z" />
<glyph unicode="\" horiz-adv-x="634" d="M-2 1362h123l559 -1567h-123z" />
<glyph unicode="]" horiz-adv-x="487" d="M53 -43h187l4 1348h-189v172h365l2 -1692h-369v172z" />
<glyph unicode="^" horiz-adv-x="729" d="M53 1100l312 354l323 -367l-121 -118l-205 250l-210 -250z" />
<glyph unicode="_" horiz-adv-x="749" d="M35 0h639v-174h-639v174z" />
<glyph unicode="`" horiz-adv-x="536" d="M-260 1804l121 142l303 -254l-80 -119z" />
<glyph unicode="a" horiz-adv-x="641" d="M55 219v238q0 104 35 143q23 23 103 59l169 76q14 6 39 45v142q0 86 -75 86q-78 0 -78 -86v-113h-172v109q0 111 71.5 186.5t178.5 75.5q109 0 180.5 -76t71.5 -186v-918h-177v63q-56 -73 -150 -73h-3q-68 0 -113 30.5t-63 67.5q-12 27 -15 72q-2 29 -2 59zM227 240 q0 -33 23 -54t56 -21q9 0 18 1q29 4 61 35q16 14 16 28v369q0 -2 -14 -16q-8 -4 -22 -15l-84 -37q-41 -18 -50 -53q-2 -8 -2 -61z" />
<glyph unicode="b" horiz-adv-x="632" d="M51 0v1464h174v-356q57 74 154 74q68 0 113 -31t63 -69t18 -130v-733q0 -43 -18 -131q-18 -37 -63.5 -67.5t-112.5 -30.5q-94 0 -154 73v-63h-174zM225 219q37 -47 78 -53q8 -1 16 -1q34 0 58 21q22 21 22 54v67v625q0 33 -22 53q-24 22 -58 22q-8 0 -16 -1 q-41 -6 -78 -54v-733z" />
<glyph unicode="c" horiz-adv-x="618" d="M43 252l2 666q0 109 77 185.5t185 76.5q109 0 185.5 -77t76.5 -185v-416h-174v420q0 35 -25.5 60.5t-60.5 25.5q-37 0 -62.5 -26t-25.5 -60v-674q0 -35 25.5 -60.5t62.5 -25.5q35 0 60.5 25.5t25.5 60.5v65h174v-61q0 -109 -75.5 -185.5t-184.5 -76.5t-187.5 76.5 t-78.5 185.5z" />
<glyph unicode="d" horiz-adv-x="647" d="M57 219v733q0 92 18.5 130t63.5 69t113 31q94 0 154 -74v356h174v-1464h-174v63q-58 -73 -151 -73h-3q-68 0 -113 30.5t-63 67.5q-12 27 -15 72q-2 29 -4 59zM231 240q0 -33 23 -54t56 -21q9 0 18 1q41 6 78 53v733q-37 47 -78 54q-9 1 -18 1q-33 -1 -53 -19 q-26 -24 -26 -56v-625v-67z" />
<glyph unicode="e" horiz-adv-x="630" d="M47 252l2 666q0 109 77 185.5t185 76.5q109 0 185.5 -77t76.5 -185v-488h-348v-182q0 -35 25.5 -60.5t60.5 -25.5q37 0 62.5 25.5t25.5 60.5v65h174v-61q0 -109 -75.5 -185.5t-184.5 -76.5q-111 0 -188.5 76.5t-77.5 185.5zM225 594h174v328q0 35 -25.5 60.5t-62.5 25.5 q-35 0 -60.5 -26t-25.5 -60v-328z" />
<glyph unicode="f" horiz-adv-x="415" d="M29 1171h71v43q2 113 78 188t207 75v-172q-115 0 -115 -86v-48h92v-161h-81v-1010h-179v1010h-71z" />
<glyph unicode="g" horiz-adv-x="645" d="M63 -57h175q0 -35 24.5 -60.5t61.5 -25.5t62.5 24.5t25.5 61.5v120q-58 -73 -153 -73h-3q-68 0 -113 30.5t-62.5 68.5t-17.5 130v733v9q0 42 17 122q18 37 63 68t113 31q96 0 154 -74l2 63h174v-1228q0 -106 -76 -171t-186 -65q-111 0 -186 65.5t-75 170.5zM236 864h2 v-624q0 -33 20 -54q23 -21 56 -21q9 0 18 1q41 6 80 53l-2 733q-37 47 -78 54q-9 1 -17 1q-33 0 -53 -19q-26 -23 -26 -56v-68z" />
<glyph unicode="h" horiz-adv-x="628" d="M47 0v1464h174v-356q59 74 156 74q68 0 113 -31t62 -69t17 -130v-952h-174v932q0 33 -20 53q-24 22 -58 22q-8 0 -16 -1q-41 -6 -80 -54v-952h-174z" />
<glyph unicode="i" horiz-adv-x="296" d="M57 0v1171h174v-1171h-174zM57 1290v174h174v-174h-174z" />
<glyph unicode="j" horiz-adv-x="374" d="M51 -133q39 0 65.5 32.5t22.5 53.5v1218h174v-1228q0 -106 -74.5 -171t-187.5 -65v160zM139 1290v174h174v-174h-174z" />
<glyph unicode="k" horiz-adv-x="612" d="M47 0v1464h174v-786h68q37 0 62.5 25.5t25.5 62.5v414h174v-412q0 -121 -107 -174q47 -18 79 -71.5t32 -106.5v-416h-178v420q0 37 -24.5 61.5t-61.5 24.5h-70v-506h-174z" />
<glyph unicode="l" horiz-adv-x="296" d="M55 0v1464h174v-1464h-174z" />
<glyph unicode="m" horiz-adv-x="991" d="M59 0v1171h174v-63q57 74 154 74q68 0 111 -29q37 -27 57 -63q20 33 66.5 62.5t105.5 29.5q68 0 113 -31t63.5 -69t18.5 -130v-952h-174v932q0 33 -23 53q-24 22 -58 22q-8 0 -16 -1q-29 -4 -61 -35q-6 -8 -8 -19v-952h-174v932q0 33 -23 53q-24 22 -58 22q-8 0 -16 -1 q-41 -6 -78 -54v-952h-174z" />
<glyph unicode="n" horiz-adv-x="649" d="M57 0v1171h174v-63q59 74 154 74q68 0 113 -31t63.5 -69t18.5 -130v-952h-174v932q0 33 -23 53q-24 22 -58 22q-8 0 -16 -1q-41 -6 -78 -54v-952h-174z" />
<glyph unicode="o" horiz-adv-x="636" d="M51 252l2 666q0 109 77 185.5t185 76.5q109 0 186 -77t77 -185v-666q0 -109 -76 -185.5t-185 -76.5t-187.5 76.5t-78.5 185.5zM229 248q0 -35 26 -60.5t62 -25.5q35 0 60.5 25.5t25.5 60.5v674q0 35 -25.5 60.5t-60.5 25.5q-37 0 -62.5 -26t-25.5 -60v-674z" />
<glyph unicode="p" horiz-adv-x="636" d="M55 -293v1464h174l2 -63q57 74 154 74q68 0 113 -31t63 -68q12 -27 14 -71q2 -29 3 -60v-733q0 -92 -17.5 -130t-62.5 -68.5t-113 -30.5q-96 0 -156 73v-356h-174zM229 219q39 -47 80 -53q8 -1 16 -1q34 0 58 21q20 20 20 54v624h3v68q0 33 -23 53q-24 22 -58 22 q-8 0 -16 -1q-41 -6 -78 -54z" />
<glyph unicode="q" horiz-adv-x="651" d="M68 219v733v8q0 43 18 123q16 37 66 70q43 29 110 29q94 0 154 -74v63h174v-1464h-174v356q-58 -73 -151 -73h-3q-68 0 -110 28q-49 33 -66.5 71t-17.5 130zM242 240q0 -33 22 -54q23 -21 56 -21q9 0 18 1q41 6 78 53v733q-37 47 -78 54q-9 1 -17 1q-33 0 -53 -19 q-26 -23 -26 -56v-68v-624z" />
<glyph unicode="r" horiz-adv-x="413" d="M43 0v1171h174v-63q59 74 156 74v-197q-25 22 -60 22q-8 0 -16 -1q-41 -6 -80 -54v-952h-174z" />
<glyph unicode="s" horiz-adv-x="614" d="M39 252l2 86h176v-90q0 -35 25.5 -60.5t62.5 -25.5q35 0 60.5 25.5t25.5 60.5v39v13q0 41 -10 103q-10 29 -59 76q0 2 -89 64q-35 25 -106 86q-37 41 -70 108q-12 27 -12 70q-2 63 -4 70v41q2 109 78 185.5t184 76.5q109 0 185.5 -77t76.5 -185v-66h-174v70 q0 35 -25.5 60.5t-60.5 25.5q-37 0 -62.5 -26t-25.5 -60v-27q0 -27 10 -86q14 -31 60 -76q27 -18 88 -63q49 -35 96 -86q55 -57 80 -127q14 -35 14 -111v-20v-74q0 -109 -75.5 -185.5t-184.5 -76.5t-187.5 76.5t-78.5 185.5z" />
<glyph unicode="t" horiz-adv-x="624" d="M27 997v162h71v168h178v-168h299v-162h-299v-749q0 -86 68 -86q66 0 66 86v420h174v-416q0 -111 -67.5 -186.5t-174.5 -75.5q-106 0 -175 75.5t-69 186.5v745h-71z" />
<glyph unicode="u" horiz-adv-x="643" d="M55 219v952h174v-931q0 -33 23 -54t56 -21q9 0 18 1q41 6 77 53v952h175v-1171h-175v63q-56 -73 -150 -73h-3q-68 0 -113 30.5t-63.5 68.5t-18.5 130z" />
<glyph unicode="v" horiz-adv-x="641" d="M55 1182h176v-1020h86q37 0 63 25.5t26 60.5v934h174v-930q0 -109 -76 -180.5t-185 -71.5h-262z" />
<glyph unicode="w" horiz-adv-x="993" d="M55 252v928h178v-932q0 -35 26 -60.5t60 -25.5q37 0 63 25.5t26 60.5v932h174v-932q0 -35 26.5 -60.5t63.5 -25.5t62.5 25.5t25.5 60.5v932h174v-928q0 -109 -76 -185.5t-184 -76.5q-53 0 -107.5 28.5t-70.5 69.5q-16 -41 -69.5 -69.5t-104.5 -28.5q-109 0 -188 76.5 t-79 185.5z" />
<glyph unicode="x" horiz-adv-x="647" d="M55 768v412h178v-414q0 -37 26 -62.5t60 -25.5q37 0 63 25.5t26 62.5v414h174v-412q0 -121 -109 -174q47 -18 80 -71.5t33 -106.5v-416h-178v420q0 37 -26 61.5t-60 24.5q-37 0 -63 -24.5t-26 -61.5v-420h-174v416q0 51 31 101t78 75q-113 61 -113 176z" />
<glyph unicode="y" horiz-adv-x="645" d="M63 -57h175q0 -35 25.5 -60.5t60.5 -25.5q37 0 62.5 24.5t25.5 61.5v120q-58 -73 -151 -73h-3q-70 0 -111 28q-49 33 -66.5 71t-17.5 130v952h175v-931q0 -33 22 -54q23 -21 56 -21q9 0 18 1q39 6 78 53v952h174v-1228q0 -106 -76 -171t-186 -65q-111 0 -186 65.5 t-75 170.5z" />
<glyph unicode="z" horiz-adv-x="579" d="M39 0v166l301 838h-299v167h483v-167l-299 -836h299v-168h-485z" />
<glyph unicode="{" horiz-adv-x="606" d="M29 639q117 18 192 76q23 18 66 65q16 27 30 72v362q0 109 77 186t186 77v-172q-35 0 -60.5 -25t-25.5 -61l2 -367q-8 -25 -33 -72q-8 -20 -35 -65q-18 -25 -37 -49q-20 -16 -84 -27q63 -2 86 -21q20 -27 40 -51t38 -71q6 -18 23 -78v-375q0 -35 25.5 -60.5t62.5 -25.5 v-172q-109 0 -188 77t-79 185l2 371q-4 25 -22 78q-16 29 -70 69q-94 72 -196 74z" />
<glyph unicode="|" horiz-adv-x="253" d="M66 -205v1669h122v-1669h-122z" />
<glyph unicode="}" horiz-adv-x="577" d="M14 -43q37 0 61.5 25.5t24.5 60.5v375q6 25 23 78q10 23 39 69q20 27 41 53q23 18 84 21q-61 10 -82 27q-20 25 -39 49q-4 8 -35 65q-8 16 -31 72v367q0 37 -24.5 61.5t-61.5 24.5v172q109 0 185.5 -77t76.5 -186l3 -362q14 -45 31.5 -72.5t64.5 -64.5q73 -58 192 -76 q-102 -2 -196 -74q-25 -18 -70 -69q-4 -16 -22 -78v-371q0 -109 -78 -185.5t-187 -76.5v172z" />
<glyph unicode="~" horiz-adv-x="794" d="M57 399q-6 45 2 133q12 39 56 78q39 33 106 41q94 12 162 -55q43 -41 84 -41q45 -2 72 29l14 55l176 2q6 -45 -2 -133q-12 -39 -54 -75t-110 -44q-94 -12 -162 55q-41 41 -84 41q-45 2 -69 -28l-17 -56z" />
<glyph unicode="&#xa1;" horiz-adv-x="309" d="M61 -205v1172h175v-1172h-175zM61 1085v175h175v-175h-175z" />
<glyph unicode="&#xa2;" horiz-adv-x="610" d="M39 375l2 604q0 96 62.5 170t156.5 88v125h72v-123q98 -10 164.5 -85t66.5 -175v-354h-174v358q0 35 -24.5 60.5t-61.5 25.5t-61.5 -25.5t-24.5 -60.5v-612q0 -35 24.5 -60.5t61.5 -25.5t61.5 25.5t24.5 60.5v65h174v-61q0 -102 -66.5 -176t-164.5 -84v-115h-72v117 q-94 14 -157.5 88t-63.5 170z" />
<glyph unicode="&#xa3;" horiz-adv-x="747" d="M47 0v164h115v139h-105v164h105l2 747q0 109 76.5 186t185.5 77t185.5 -77t76.5 -186v-712h-174v717q0 35 -25.5 60.5t-62.5 25.5q-35 0 -60.5 -26t-25.5 -60v-752h86v-164h-86v-139h322v-164h-615z" />
<glyph unicode="&#xa5;" horiz-adv-x="645" d="M57 662l2 804h177v-809q0 -35 24.5 -60.5t61.5 -25.5t62.5 26t25.5 60v809h172v-804q0 -86 -48.5 -154t-125.5 -94v-76h147v-102h-147v-72h147v-103h-147v-61h-175v61h-149v103h149v72h-149v102h149v76q-78 29 -127 96.5t-49 151.5z" />
<glyph unicode="&#xa6;" horiz-adv-x="251" d="M66 -205v731h122v-731h-122zM66 680v784h122v-784h-122z" />
<glyph unicode="&#xa7;" horiz-adv-x="628" d="M45 1204v37q2 98 79 167t183 69q109 0 185.5 -69t76.5 -167v-59h-174v61q0 33 -24.5 56.5t-61.5 23.5t-62.5 -23.5t-25.5 -56.5v-22q0 -25 10 -78q14 -29 60 -68q29 -18 88 -57q49 -33 96 -78q55 -51 80 -115q16 -35 14 -114v-70q0 -78 -71 -137q-61 -51 -156 -74l37 -22 q70 -41 107.5 -78t68.5 -97q14 -27 14 -63q2 -58 4 -64l-2 -36q0 -96 -76.5 -166t-185.5 -70t-184.5 69.5t-75.5 166.5v59h172v-61q0 -33 25.5 -55.5t62.5 -22.5t61.5 22.5t24.5 55.5v22q2 25 -10 78q-12 29 -59 68q-27 18 -88 57q-47 33 -98.5 81t-78.5 111q-14 35 -14 115 l2 70q0 80 67.5 139t159.5 80l-38 14q-41 14 -107 78q-37 37 -70 98q-12 27 -12 64v24q0 20 -4 37zM205 633l2 -8q2 -33 31.5 -57.5t66.5 -24.5q43 0 73 26.5t30 65.5v41q-14 92 -103 92q-41 0 -70.5 -27.5t-29.5 -64.5v-43z" />
<glyph unicode="&#xa8;" d="M-96 1591v195h194v-195h-194zM229 1591v195h195v-195h-195z" />
<glyph unicode="&#xa9;" horiz-adv-x="712" d="M57 281l2 806q0 123 86 209t209 86t209 -86t86 -209v-806q0 -123 -85 -209t-208 -86t-211 86t-88 209zM154 281q0 -82 59 -140.5t143 -58.5q82 0 139.5 58.5t57.5 140.5v806q0 82 -58.5 140.5t-140.5 58.5t-140 -58.5t-58 -140.5zM203 395v574q0 66 46 110.5t109 44.5 q66 0 112 -45t46 -110v-424h-104v426q0 51 -52 51q-53 0 -53 -51v-578q0 -51 53 -51q51 0 52 51v39h104v-37q0 -66 -45 -110.5t-111 -44.5t-111.5 45t-45.5 110z" />
<glyph unicode="&#xaa;" horiz-adv-x="636" d="M53 803v63q0 104 37 144q23 23 103 59l169 76q14 6 39 45v39q0 86 -75 86q-78 0 -78 -86v-10h-174v6q0 111 72.5 186.5t179.5 75.5q109 0 180.5 -76t71.5 -186v-641h-177v63q-57 -74 -153 -74q-68 0 -113 31t-63 68q-12 27 -15 71q-2 29 -4 60zM227 823q-4 -27 24 -53.5 t73 -19.5q29 4 61 34q16 15 16 29v195q0 -2 -14 -17q-8 -4 -22 -14l-84 -37q-39 -18 -44.5 -51t-9.5 -66z" />
<glyph unicode="&#xab;" horiz-adv-x="868" d="M39 571l301 336h184l-301 -338l301 -313h-184zM346 571l301 336h184l-301 -338l301 -313h-184z" />
<glyph unicode="&#xad;" d="M61 539v174h514v-174h-514z" />
<glyph unicode="&#xae;" horiz-adv-x="712" d="M57 281l2 909q0 123 86 209t209 86t210 -86t87 -209v-909q0 -123 -86 -209t-209 -86t-211 86t-88 209zM154 281q0 -82 59 -140.5t143 -58.5q82 0 139.5 58.5t57.5 140.5v909q0 82 -58.5 140.5t-140.5 58.5t-140 -58.5t-58 -140.5zM203 297v872h155q66 0 111 -45t45 -110 v-180q0 -80 -70 -101q70 -29 70 -104v-332h-102v336q0 47 -47 51h-58v-387h-104zM307 786h58q47 5 47 52v178q0 51 -52 51h-53v-281z" />
<glyph unicode="&#xb0;" horiz-adv-x="636" d="M53 1016l2 106q2 109 78 185.5t184 76.5q109 0 186 -76.5t77 -185.5v-106q0 -109 -76 -185.5t-185 -76.5q-111 0 -189.5 76.5t-76.5 185.5zM231 1012q0 -35 26 -60.5t60 -25.5q37 0 63 25.5t26 60.5v114q0 35 -26 60.5t-63 25.5q-35 0 -60.5 -25.5t-25.5 -60.5v-114z" />
<glyph unicode="&#xb1;" horiz-adv-x="845" d="M27 0v174h802v-174h-802zM33 662v153h317v342h164v-342h307v-153h-307v-355h-164v355h-317z" />
<glyph unicode="&#xb2;" horiz-adv-x="389" d="M57 764v113q0 109 43 178q39 41 109 133q14 18 37 69q0 -2 0 62v43q0 45 -47 45q-45 0 -45 -45v-76h-95v74q0 57 41 98t101 41q57 0 98 -41t41 -98v-49q0 -61 -6 -90q-14 -55 -90 -144q-27 -31 -53.5 -65.5t-34.5 -71.5q-4 -12 -4 -72v-10h184v-94h-279z" />
<glyph unicode="&#xb3;" horiz-adv-x="415" d="M63 899v49h97v-51q0 -47 45 -47q47 0 47 47v143q0 51 -47 52h-66v88h66q47 0 47 45v137q0 45 -47 45t-47 -45v-53h-95v51q0 57 41 98t101 41q57 0 98 -41t41 -98v-133q0 -82 -63 -92q66 -16 65 -97v-139q0 -59 -42 -100t-99 -41t-99.5 41t-42.5 100z" />
<glyph unicode="&#xb4;" horiz-adv-x="536" d="M-297 1692l303 254l121 -142l-344 -231z" />
<glyph unicode="&#xb5;" horiz-adv-x="636" d="M55 -307v1478h174v-952q37 -47 78 -53q45 -6 74 20q23 20 22 54v931h175v-952q0 -92 -17.5 -130t-63.5 -68.5t-114 -30.5q-94 0 -154 73v-370h-174z" />
<glyph unicode="&#xb6;" horiz-adv-x="968" d="M61 662v542q0 109 77 185.5t186 76.5h579v-1466h-174v1294h-143v-1294h-174v410h-90q-111 0 -186 71.5t-75 180.5zM236 668q0 -35 25.5 -60.5t60.5 -25.5h90v712h-90q-35 0 -60.5 -25.5t-25.5 -60.5v-540z" />
<glyph unicode="&#xb7;" horiz-adv-x="339" d="M72 463v194h194v-194h-194z" />
<glyph unicode="&#xb8;" horiz-adv-x="403" d="M43 -8v35h174v-37q0 -33 31 -33q23 0 22 33v24q-2 23 -9 25t-15 21.5t-51 78.5q-41 53 -45 58v77h184v-77q45 -49 59 -88l6 -19q8 -18 20.5 -23.5t12.5 -25.5v-49q0 -86 -54 -146.5t-138 -60.5t-141.5 60.5t-55.5 146.5z" />
<glyph unicode="&#xb9;" horiz-adv-x="401" d="M72 1335l164 152h92v-723h-92v608l-95 -96z" />
<glyph unicode="&#xba;" horiz-adv-x="636" d="M59 836l2 389q0 109 77 185.5t186 76.5t185.5 -77t76.5 -185v-389q0 -109 -77 -186t-183 -77q-111 0 -190 77t-77 186zM238 831q0 -35 24.5 -60.5t61.5 -25.5t62.5 25.5t25.5 60.5v398q0 35 -26 60.5t-62 25.5q-37 0 -61.5 -25.5t-24.5 -60.5v-398z" />
<glyph unicode="&#xbb;" horiz-adv-x="874" d="M39 256l299 313l-299 338h184l299 -336l-299 -315h-184zM346 256l299 313l-299 338h184l299 -336l-299 -315h-184z" />
<glyph unicode="&#xbc;" horiz-adv-x="976" d="M43 0l813 1362h82l-813 -1362h-82zM51 1202l164 152h92v-652h-92v537l-94 -96zM635 111v90l168 524h92v-524h37v-90h-37v-111h-90v111h-170zM733 201h72v274z" />
<glyph unicode="&#xbd;" horiz-adv-x="1003" d="M49 0l815 1362h82l-815 -1362h-82zM57 1202l164 152h92v-652h-92v537l-94 -96zM680 0l2 115q0 109 41 176q39 43 108 133q16 20 39 70q-2 -2 -2 63v41q0 47 -45 47q-47 0 -47 -47v-76h-94v74q0 57 41 99t100 42q57 0 98.5 -41t41.5 -100l2 -49q0 -61 -9 -88 q-14 -55 -88 -146q-27 -31 -53 -61q-29 -39 -37 -74q-2 -12 -2 -74v-10h185v-94h-281z" />
<glyph unicode="&#xbe;" horiz-adv-x="972" d="M39 0l825 1362h82l-825 -1362h-82zM59 842v51h95v-53q0 -47 47 -47q45 0 45 47v104q0 51 -45 51h-68v86h68q45 0 45 47v95q0 47 -47 47q-45 0 -45 -47v-52h-95v50q0 59 41 100t99 41q59 0 100 -41t41 -100v-91q0 -82 -66 -92q66 -16 66 -96v-100q0 -57 -41 -98.5 t-100 -41.5q-57 0 -98.5 41t-41.5 99zM631 111v90l168 524h94v-524h35v-90h-35v-111h-90v111h-172zM729 201h74v274z" />
<glyph unicode="&#xbf;" horiz-adv-x="606" d="M47 45v154q0 125 14 176q31 117 66 174q10 16 100 125q16 20 47 70.5t31 64.5v160h170v-211q0 -68 -80 -166q-35 -35 -102 -123q-41 -63 -62 -147q-8 -29 -8 -142v-139q0 -37 25.5 -61.5t62.5 -24.5q35 0 60.5 24.5t25.5 61.5v244h174v-240q0 -109 -76.5 -185.5 t-185.5 -76.5t-185.5 77t-76.5 185zM305 1085v175h174v-175h-174z" />
<glyph unicode="&#xc0;" d="M49 1804l121 142l303 -254l-80 -119zM57 0v1225q0 109 76 185.5t182 76.5q111 0 189 -76.5t78 -185.5l-2 -1225h-177v516h-172v-516h-174zM231 680h172v549q0 35 -24.5 60.5t-61.5 25.5t-61.5 -25.5t-24.5 -60.5v-549z" />
<glyph unicode="&#xc1;" d="M63 0v1225q0 109 76 185.5t182 76.5q111 0 189 -76.5t78 -185.5l-2 -1225h-177v516h-172v-516h-174zM158 1692l303 254l121 -142l-344 -231zM237 680h172v549q0 35 -24.5 60.5t-61.5 25.5t-61.5 -25.5t-24.5 -60.5v-549z" />
<glyph unicode="&#xc2;" d="M59 0v1225q0 109 76 185.5t182 76.5q111 0 189 -76.5t78 -185.5l-2 -1225h-177v516h-172v-516h-174zM65 1704l271 354l282 -366l-120 -119l-164 239l-170 -239zM233 680h172v549q0 35 -24.5 60.5t-61.5 25.5t-61.5 -25.5t-24.5 -60.5v-549z" />
<glyph unicode="&#xc3;" d="M43 1575q0 262 162 262q80 0 141.5 -63.5t67.5 -63.5q53 0 53 131h144q0 -274 -197 -274q-72 0 -125 56t-74 50q-29 -6 -28 -98h-144zM59 0v1225q0 109 76 185.5t182 76.5q111 0 189 -76.5t78 -185.5l-2 -1225h-177v516h-172v-516h-174zM233 680h172v549q0 35 -24.5 60.5 t-61.5 25.5t-61.5 -25.5t-24.5 -60.5v-549z" />
<glyph unicode="&#xc4;" d="M61 0v1225q0 109 76 185.5t182 76.5q111 0 189 -76.5t78 -185.5l-2 -1225h-177v516h-172v-516h-174zM76 1591v195h194v-195h-194zM235 680h172v549q0 35 -24.5 60.5t-61.5 25.5t-61.5 -25.5t-24.5 -60.5v-549zM401 1591v195h195v-195h-195z" />
<glyph unicode="&#xc5;" d="M61 0v1225q0 109 76 185.5t182 76.5q111 0 189 -76.5t78 -185.5l-2 -1225h-177v516h-172v-516h-174zM92 1800l2 23q8 96 73 161.5t157 65.5q94 0 160.5 -66.5t66.5 -160.5v-23q0 -94 -65.5 -160.5t-159.5 -66.5q-96 0 -168 67.5t-66 159.5zM235 680h172v549 q0 35 -24.5 60.5t-61.5 25.5t-61.5 -25.5t-24.5 -60.5v-549zM248 1798q0 -31 22.5 -53.5t53.5 -22.5q33 0 54.5 22.5t21.5 53.5v27q0 33 -21.5 54.5t-54.5 21.5q-31 0 -53.5 -21.5t-22.5 -54.5v-27z" />
<glyph unicode="&#xc6;" horiz-adv-x="884" d="M39 0v1225q0 109 75.5 185.5t184.5 76.5q53 0 102 -21h461v-163h-301v-451h301v-164h-299v-524h299v-164h-475v516h-174v-516h-174zM213 680h174v549q0 35 -25.5 60.5t-62.5 25.5q-35 0 -60.5 -25.5t-25.5 -60.5v-549z" />
<glyph unicode="&#xc7;" horiz-adv-x="636" d="M45 252l2 962q0 109 77 186t185 77q109 0 185.5 -77t76.5 -186v-712h-174v717q0 35 -25.5 60.5t-60.5 25.5q-37 0 -62.5 -26t-25.5 -60v-971q0 -35 25.5 -60.5t62.5 -25.5q35 0 60.5 25.5t25.5 60.5v65h174v-61q0 -166 -147 -238q10 -12 10 -11t4 -7l6 -19q6 -6 21 -49 l12 -51q8 -37 -51 -82q-63 -51 -143 -51q-82 0 -139.5 42t-57.5 93v35h174v-37q0 -33 33 -33q23 0 22 33v25q-4 23 -10 24.5t-16 22.5q-4 6 -37 47q-88 20 -147.5 92t-59.5 164z" />
<glyph unicode="&#xc8;" horiz-adv-x="587" d="M41 0v1466h475v-163h-301v-451h301v-164h-301v-524h301v-164h-475zM57 1804l121 142l303 -254l-80 -119z" />
<glyph unicode="&#xc9;" horiz-adv-x="587" d="M35 0v1466h475v-163h-301v-451h301v-164h-301v-524h301v-164h-475zM154 1692l303 254l121 -142l-344 -231z" />
<glyph unicode="&#xca;" horiz-adv-x="587" d="M28 1704l271 354l282 -366l-120 -119l-164 239l-170 -239zM39 0v1466h475v-163h-301v-451h301v-164h-301v-524h301v-164h-475z" />
<glyph unicode="&#xcb;" horiz-adv-x="587" d="M35 0v1466h475v-163h-301v-451h301v-164h-301v-524h301v-164h-475zM43 1591v195h194v-195h-194zM368 1591v195h195v-195h-195z" />
<glyph unicode="&#xcc;" horiz-adv-x="299" d="M-145 1804l121 142l303 -254l-80 -119zM59 0v1464h174v-1464h-174z" />
<glyph unicode="&#xcd;" horiz-adv-x="299" d="M39 1692l303 254l121 -142l-344 -231zM59 0v1464h174v-1464h-174z" />
<glyph unicode="&#xce;" horiz-adv-x="299" d="M-105 1704l271 354l282 -366l-120 -119l-164 239l-170 -239zM65 0v1464h174v-1464h-174z" />
<glyph unicode="&#xcf;" horiz-adv-x="299" d="M-102 1591v195h194v-195h-194zM59 0v1464h174v-1464h-174zM223 1591v195h195v-195h-195z" />
<glyph unicode="&#xd0;" horiz-adv-x="753" d="M51 539v174h107v753h262q109 0 185.5 -76.5t76.5 -185.5v-952q0 -109 -75 -180.5t-185 -71.5h-266l2 539h-107zM334 172h88q35 0 60.5 25.5t25.5 60.5v950q0 35 -25.5 60.5t-60.5 25.5h-88v-581h98v-174h-98v-367z" />
<glyph unicode="&#xd1;" d="M34 1575q0 262 162 262q80 0 141.5 -63.5t67.5 -63.5q53 0 53 131h144q0 -274 -197 -274q-72 0 -125 56t-74 50q-29 -6 -28 -98h-144zM51 0v1214q0 109 76 186t184 77q111 0 189 -77t78 -186l-2 -1214h-177v1219q0 35 -25.5 60.5t-60.5 25.5q-37 0 -62.5 -26t-25.5 -60 v-1219h-174z" />
<glyph unicode="&#xd2;" d="M49 1804l121 142l303 -254l-80 -119zM57 252l2 962q0 109 77 186t185 77q109 0 186 -77t77 -186v-962q0 -109 -76 -185.5t-185 -76.5t-187.5 76.5t-78.5 185.5zM235 248q0 -35 26 -60.5t62 -25.5q35 0 61 25.5t26 60.5v971q0 35 -26 60.5t-61 25.5q-37 0 -62.5 -26 t-25.5 -60v-971z" />
<glyph unicode="&#xd3;" d="M53 252l2 962q0 109 77 186t185 77q109 0 186 -77t77 -186v-962q0 -109 -76 -185.5t-185 -76.5t-187.5 76.5t-78.5 185.5zM147 1692l303 254l121 -142l-344 -231zM231 248q0 -35 26 -60.5t62 -25.5q35 0 61 25.5t26 60.5v971q0 35 -26 60.5t-61 25.5q-37 0 -62.5 -26 t-25.5 -60v-971z" />
<glyph unicode="&#xd4;" d="M32 1704l271 354l282 -366l-120 -119l-164 239l-170 -239zM47 252l2 962q0 109 77 186t185 77q109 0 186 -77t77 -186v-962q0 -109 -76 -185.5t-185 -76.5t-187.5 76.5t-78.5 185.5zM225 248q0 -35 26 -60.5t62 -25.5q35 0 61 25.5t26 60.5v971q0 35 -26 60.5t-61 25.5 q-37 0 -62.5 -26t-25.5 -60v-971z" />
<glyph unicode="&#xd5;" d="M45 1575q0 262 162 262q80 0 141.5 -63.5t67.5 -63.5q53 0 53 131h144q0 -274 -197 -274q-72 0 -125 56t-74 50q-29 -6 -28 -98h-144zM61 252l2 962q0 109 77 186t185 77q109 0 186 -77t77 -186v-962q0 -109 -76 -185.5t-185 -76.5t-187.5 76.5t-78.5 185.5zM239 248 q0 -35 26 -60.5t62 -25.5q35 0 61 25.5t26 60.5v971q0 35 -26 60.5t-61 25.5q-37 0 -62.5 -26t-25.5 -60v-971z" />
<glyph unicode="&#xd6;" d="M53 252l2 962q0 109 77 186t185 77q109 0 186 -77t77 -186v-962q0 -109 -76 -185.5t-185 -76.5t-187.5 76.5t-78.5 185.5zM68 1591v195h194v-195h-194zM231 248q0 -35 26 -60.5t62 -25.5q35 0 61 25.5t26 60.5v971q0 35 -26 60.5t-61 25.5q-37 0 -62.5 -26t-25.5 -60 v-971zM393 1591v195h195v-195h-195z" />
<glyph unicode="&#xd8;" horiz-adv-x="686" d="M-6 -57l88 247q-8 31 -8 62l2 962q0 109 76.5 186t185.5 77q102 0 178 -70l35 102h123l-82 -229q8 -33 8 -66v-962q0 -109 -75.5 -185.5t-184.5 -76.5q-104 0 -182 71l-41 -118h-123zM252 248q0 -35 25.5 -60.5t62.5 -25.5q35 0 60.5 25.5t25.5 60.5v565l-174 -487v-78z M252 670l174 487v62q0 35 -25.5 60.5t-60.5 25.5q-37 0 -62.5 -26t-25.5 -60v-549z" />
<glyph unicode="&#xd9;" d="M45 1804l121 142l303 -254l-80 -119zM55 252l2 1214h177v-1218q0 -35 25.5 -60.5t62.5 -25.5q35 0 60.5 25.5t25.5 60.5v1218h174v-1214q0 -109 -76 -185.5t-184 -76.5q-109 0 -188 76.5t-79 185.5z" />
<glyph unicode="&#xda;" d="M61 252l2 1214h177v-1218q0 -35 25.5 -60.5t62.5 -25.5q35 0 60.5 25.5t25.5 60.5v1218h174v-1214q0 -109 -76 -185.5t-184 -76.5q-109 0 -188 76.5t-79 185.5zM154 1692l303 254l121 -142l-344 -231z" />
<glyph unicode="&#xdb;" d="M39 1704l271 354l282 -366l-120 -119l-164 239l-170 -239zM55 252l2 1214h177v-1218q0 -35 25.5 -60.5t62.5 -25.5q35 0 60.5 25.5t25.5 60.5v1218h174v-1214q0 -109 -76 -185.5t-184 -76.5q-109 0 -188 76.5t-79 185.5z" />
<glyph unicode="&#xdc;" d="M61 252l2 1214h177v-1218q0 -35 25.5 -60.5t62.5 -25.5q35 0 60.5 25.5t25.5 60.5v1218h174v-1214q0 -109 -76 -185.5t-184 -76.5q-109 0 -188 76.5t-79 185.5zM74 1591v195h194v-195h-194zM399 1591v195h195v-195h-195z" />
<glyph unicode="&#xdd;" d="M53 662l2 804h176v-809q0 -35 26 -60.5t63 -25.5q35 0 60.5 26t25.5 60v809h174v-804q0 -86 -48.5 -154t-125.5 -94v-414h-175v414q-78 29 -128 96.5t-50 151.5zM147 1692l303 254l121 -142l-344 -231z" />
<glyph unicode="&#xde;" horiz-adv-x="614" d="M49 0v1466h174v-204h88q109 0 185.5 -77t76.5 -186v-542q0 -109 -74.5 -180.5t-185.5 -71.5h-90v-205h-174zM223 377h90q35 0 60.5 25.5t25.5 60.5v541q0 35 -25.5 60.5t-60.5 25.5h-90v-713z" />
<glyph unicode="&#xdf;" horiz-adv-x="630" d="M55 -102v1568h262q109 0 186 -76.5t77 -185.5v-301q0 -53 -33 -104t-86 -68q117 -47 117 -172v-307q0 -109 -75 -180.5t-186 -71.5v174q37 0 63 25.5t26 60.5v305q0 78 -80 86v170q80 8 80 86v301q0 35 -26 60.5t-63 25.5h-86v-1396h-176z" />
<glyph unicode="&#xe0;" horiz-adv-x="634" d="M53 219v238q0 104 35 143q23 23 103 59l169 76q14 6 39 45v142q0 86 -75 86q-78 0 -78 -86v-113h-172v109q0 111 71.5 186.5t178.5 75.5q109 0 180.5 -76t71.5 -186v-918h-177v63q-57 -74 -153 -73q-68 0 -113 30.5t-63 67.5q-12 27 -15 72q-2 29 -2 59zM117 1468 l121 142l303 -254l-80 -119zM225 240q0 -33 23 -54q29 -27 74 -20q29 4 61 35q16 14 16 28v369q0 -2 -14 -16q-8 -4 -22 -15l-84 -37q-41 -18 -50 -53q-2 -8 -2 -61z" />
<glyph unicode="&#xe1;" horiz-adv-x="634" d="M53 219v238q0 104 35 143q23 23 103 59l169 76q14 6 39 45v142q0 86 -75 86q-78 0 -78 -86v-113h-172v109q0 111 71.5 186.5t178.5 75.5q109 0 180.5 -76t71.5 -186v-918h-177v63q-57 -74 -153 -73q-68 0 -113 30.5t-63 67.5q-12 27 -15 72q-2 29 -2 59zM137 1356 l303 254l121 -142l-344 -231zM225 240q0 -33 23 -54q29 -27 74 -20q29 4 61 35q16 14 16 28v369q0 -2 -14 -16q-8 -4 -22 -15l-84 -37q-41 -18 -50 -53q-2 -8 -2 -61z" />
<glyph unicode="&#xe2;" horiz-adv-x="634" d="M51 1368l271 354l282 -366l-120 -119l-164 239l-170 -239zM55 219v238q0 104 35 143q23 23 103 59l169 76q14 6 39 45v142q0 86 -75 86q-78 0 -78 -86v-113h-172v109q0 111 71.5 186.5t178.5 75.5q109 0 180.5 -76t71.5 -186v-918h-177v63q-57 -74 -153 -73 q-68 0 -113 30.5t-63 67.5q-12 27 -15 72q-2 29 -2 59zM227 240q0 -33 23 -54q29 -27 74 -20q29 4 61 35q16 14 16 28v369q0 -2 -14 -16q-8 -4 -22 -15l-84 -37q-41 -18 -50 -53q-2 -8 -2 -61z" />
<glyph unicode="&#xe3;" horiz-adv-x="634" d="M49 1239q0 262 162 262q80 0 141.5 -63.5t67.5 -63.5q53 0 53 131h144q0 -274 -197 -274q-72 0 -125 56t-74 50q-29 -6 -28 -98h-144zM55 219v238q0 104 35 143q23 23 103 59l169 76q14 6 39 45v142q0 86 -75 86q-78 0 -78 -86v-113h-172v109q0 111 71.5 186.5 t178.5 75.5q109 0 180.5 -76t71.5 -186v-918h-177v63q-57 -74 -153 -73q-68 0 -113 30.5t-63 67.5q-12 27 -15 72q-2 29 -2 59zM227 240q0 -33 23 -54q29 -27 74 -20q29 4 61 35q16 14 16 28v369q0 -2 -14 -16q-8 -4 -22 -15l-84 -37q-41 -18 -50 -53q-2 -8 -2 -61z" />
<glyph unicode="&#xe4;" horiz-adv-x="634" d="M61 219v238q0 104 35 143q23 23 103 59l169 76q14 6 39 45v142q0 86 -75 86q-78 0 -78 -86v-113h-172v109q0 111 71.5 186.5t178.5 75.5q109 0 180.5 -76t71.5 -186v-918h-177v63q-57 -74 -153 -73q-68 0 -113 30.5t-63 67.5q-12 27 -15 72q-2 29 -2 59zM86 1255v195h194 v-195h-194zM233 240q0 -33 23 -54q29 -27 74 -20q29 4 61 35q16 14 16 28v369q0 -2 -14 -16q-8 -4 -22 -15l-84 -37q-41 -18 -50 -53q-2 -8 -2 -61zM411 1255v195h195v-195h-195z" />
<glyph unicode="&#xe5;" horiz-adv-x="634" d="M59 219v238q0 104 35 143q23 23 103 59l169 76q14 6 39 45v142q0 86 -75 86q-78 0 -78 -86v-113h-172v109q0 111 71.5 186.5t178.5 75.5q109 0 180.5 -76t71.5 -186v-918h-177v63q-57 -74 -153 -73q-68 0 -113 30.5t-63 67.5q-12 27 -15 72q-2 29 -2 59zM114 1386l2 23 q8 96 73 161.5t157 65.5q94 0 160.5 -66.5t66.5 -160.5v-23q0 -94 -65.5 -160.5t-159.5 -66.5q-96 0 -168 67.5t-66 159.5zM231 240q0 -33 23 -54q29 -27 74 -20q29 4 61 35q16 14 16 28v369q0 -2 -14 -16q-8 -4 -22 -15l-84 -37q-41 -18 -50 -53q-2 -8 -2 -61zM270 1384 q0 -31 22.5 -53.5t53.5 -22.5q33 0 54.5 22.5t21.5 53.5v27q0 33 -21.5 54.5t-54.5 21.5q-31 0 -53.5 -21.5t-22.5 -54.5v-27z" />
<glyph unicode="&#xe6;" horiz-adv-x="991" d="M59 219v238q0 104 37 143q23 23 103 59l170 76q12 6 39 45v142q0 86 -76 86q-78 0 -78 -86v-113h-174v109q0 111 71.5 186.5t180.5 75.5q47 0 98 -35q45 -31 70 -70q23 39 74 72t98 33q109 0 185.5 -77t76.5 -185v-488h-348v-182q0 -35 25.5 -60.5t60.5 -25.5 q37 0 62.5 25.5t25.5 60.5v65h174v-61q0 -109 -76 -185.5t-184 -76.5q-47 0 -90 16v-6h-176v63q-59 -74 -154 -73q-68 0 -111 28q-49 33 -65 70q-12 27 -15 72q-2 29 -4 59zM233 240q0 -33 23 -54q29 -27 74 -20q27 4 61 35q17 14 17 28v369q0 -2 -15 -16q-8 -4 -22 -15 l-84 -37q-41 -18 -51 -53q-2 -8 -3 -61v-176zM586 594h174v328q0 35 -25.5 60.5t-62.5 25.5q-35 0 -60.5 -26t-25.5 -60v-328z" />
<glyph unicode="&#xe7;" horiz-adv-x="632" d="M47 252l2 666q0 109 77 185.5t185 76.5q109 0 185.5 -77t76.5 -185v-416h-174v420q0 35 -25.5 60.5t-62.5 25.5q-35 0 -60.5 -26t-25.5 -60v-674q0 -35 25.5 -60.5t60.5 -25.5q37 0 62.5 25.5t25.5 60.5v65h174v-61q0 -164 -145 -236q4 -4 12 -10q0 -2 2 -10l9 -19 q6 -6 20 -49l10 -49q10 -51 -49 -98t-143 -47q-80 0 -138.5 46t-58.5 99v35h174v-37q0 -33 33 -33q23 0 23 33v25q-4 23 -10.5 24.5t-16.5 22.5q-4 6 -35 47q-92 18 -152.5 90t-60.5 166z" />
<glyph unicode="&#xe8;" horiz-adv-x="622" d="M45 252l2 666q0 109 77 185.5t185 76.5q109 0 185.5 -77t76.5 -185v-488h-348v-182q0 -35 25.5 -60.5t60.5 -25.5q37 0 62.5 25.5t25.5 60.5v65h174v-61q0 -109 -75.5 -185.5t-184.5 -76.5q-111 0 -188.5 76.5t-77.5 185.5zM107 1468l121 142l303 -254l-80 -119zM223 594 h174v328q0 35 -25.5 60.5t-62.5 25.5q-35 0 -60.5 -26t-25.5 -60v-328z" />
<glyph unicode="&#xe9;" horiz-adv-x="622" d="M43 252l2 666q0 109 77 185.5t185 76.5q109 0 185.5 -77t76.5 -185v-488h-348v-182q0 -35 25.5 -60.5t60.5 -25.5q37 0 62.5 25.5t25.5 60.5v65h174v-61q0 -109 -75.5 -185.5t-184.5 -76.5q-111 0 -188.5 76.5t-77.5 185.5zM145 1356l303 254l121 -142l-344 -231z M221 594h174v328q0 35 -25.5 60.5t-62.5 25.5q-35 0 -60.5 -26t-25.5 -60v-328z" />
<glyph unicode="&#xea;" horiz-adv-x="622" d="M47 252l2 666q0 109 77 185.5t185 76.5q109 0 185.5 -77t76.5 -185v-488h-348v-182q0 -35 25.5 -60.5t60.5 -25.5q37 0 62.5 25.5t25.5 60.5v65h174v-61q0 -109 -75.5 -185.5t-184.5 -76.5q-111 0 -188.5 76.5t-77.5 185.5zM61 1368l271 354l282 -366l-120 -119l-164 239 l-170 -239zM225 594h174v328q0 35 -25.5 60.5t-62.5 25.5q-35 0 -60.5 -26t-25.5 -60v-328z" />
<glyph unicode="&#xeb;" horiz-adv-x="622" d="M47 252l2 666q0 109 77 185.5t185 76.5q109 0 185.5 -77t76.5 -185v-488h-348v-182q0 -35 25.5 -60.5t60.5 -25.5q37 0 62.5 25.5t25.5 60.5v65h174v-61q0 -109 -75.5 -185.5t-184.5 -76.5q-111 0 -188.5 76.5t-77.5 185.5zM60 1255v195h194v-195h-194zM225 594h174v328 q0 35 -25.5 60.5t-62.5 25.5q-35 0 -60.5 -26t-25.5 -60v-328zM385 1255v195h195v-195h-195z" />
<glyph unicode="&#xec;" horiz-adv-x="288" d="M-186 1468l121 142l303 -254l-80 -119zM55 0v1171h174v-1171h-174z" />
<glyph unicode="&#xed;" horiz-adv-x="288" d="M18 1356l303 254l121 -142l-344 -231zM65 0v1171h174v-1171h-174z" />
<glyph unicode="&#xee;" horiz-adv-x="288" d="M-121 1368l271 354l282 -366l-120 -119l-164 239l-170 -239zM55 0v1171h174v-1171h-174z" />
<glyph unicode="&#xef;" horiz-adv-x="288" d="M-108 1255v195h194v-195h-194zM59 0v1171h174v-1171h-174zM217 1255v195h195v-195h-195z" />
<glyph unicode="&#xf0;" horiz-adv-x="665" d="M31 219v733q0 92 18.5 130t63.5 69t112 31q94 0 154 -74v111h-197v174h197v71h174v-71h92v-174h-92v-1219h-174v63q-59 -74 -154 -73q-68 0 -112.5 30.5t-63.5 67.5q-12 27 -14 72q-2 29 -4 59zM205 240q0 -33 22 -54q29 -27 74 -20q41 6 78 53v733q-37 47 -78 54 q-45 6 -70.5 -17.5t-25.5 -56.5v-625v-67z" />
<glyph unicode="&#xf1;" d="M41 1239q0 262 162 262q80 0 141.5 -63.5t67.5 -63.5q53 0 53 131h144q0 -274 -197 -274q-72 0 -125 56t-74 50q-29 -6 -28 -98h-144zM57 0v1171h174v-63q59 74 154 74q68 0 113 -31t63.5 -69t18.5 -130v-952h-174v932q0 33 -23 53q-29 27 -74 21q-41 -6 -78 -54v-952 h-174z" />
<glyph unicode="&#xf2;" horiz-adv-x="630" d="M51 252l2 666q0 109 77 185.5t185 76.5q109 0 186 -77t77 -185v-666q0 -109 -76 -185.5t-185 -76.5t-187.5 76.5t-78.5 185.5zM90 1468l121 142l303 -254l-80 -119zM229 248q0 -35 26 -60.5t62 -25.5q35 0 60.5 25.5t25.5 60.5v674q0 35 -25.5 60.5t-60.5 25.5 q-37 0 -62.5 -26t-25.5 -60v-674z" />
<glyph unicode="&#xf3;" horiz-adv-x="630" d="M47 252l2 666q0 109 77 185.5t185 76.5q109 0 186 -77t77 -185v-666q0 -109 -76 -185.5t-185 -76.5t-187.5 76.5t-78.5 185.5zM147 1356l303 254l121 -142l-344 -231zM225 248q0 -35 26 -60.5t62 -25.5q35 0 60.5 25.5t25.5 60.5v674q0 35 -25.5 60.5t-60.5 25.5 q-37 0 -62.5 -26t-25.5 -60v-674z" />
<glyph unicode="&#xf4;" horiz-adv-x="630" d="M45 1368l271 354l282 -366l-120 -119l-164 239l-170 -239zM53 252l2 666q0 109 77 185.5t185 76.5q109 0 186 -77t77 -185v-666q0 -109 -76 -185.5t-185 -76.5t-187.5 76.5t-78.5 185.5zM231 248q0 -35 26 -60.5t62 -25.5q35 0 60.5 25.5t25.5 60.5v674q0 35 -25.5 60.5 t-60.5 25.5q-37 0 -62.5 -26t-25.5 -60v-674z" />
<glyph unicode="&#xf5;" horiz-adv-x="630" d="M45 1239q0 262 162 262q80 0 141.5 -63.5t67.5 -63.5q53 0 53 131h144q0 -274 -197 -274q-72 0 -125 56t-74 50q-29 -6 -28 -98h-144zM55 252l2 666q0 109 77 185.5t185 76.5q109 0 186 -77t77 -185v-666q0 -109 -76 -185.5t-185 -76.5t-187.5 76.5t-78.5 185.5zM233 248 q0 -35 26 -60.5t62 -25.5q35 0 60.5 25.5t25.5 60.5v674q0 35 -25.5 60.5t-60.5 25.5q-37 0 -62.5 -26t-25.5 -60v-674z" />
<glyph unicode="&#xf6;" horiz-adv-x="630" d="M53 252l2 666q0 109 77 185.5t185 76.5q109 0 186 -77t77 -185v-666q0 -109 -76 -185.5t-185 -76.5t-187.5 76.5t-78.5 185.5zM74 1255v195h194v-195h-194zM231 248q0 -35 26 -60.5t62 -25.5q35 0 60.5 25.5t25.5 60.5v674q0 35 -25.5 60.5t-60.5 25.5q-37 0 -62.5 -26 t-25.5 -60v-674zM399 1255v195h195v-195h-195z" />
<glyph unicode="&#xf8;" horiz-adv-x="661" d="M33 -74l63 183q-43 66 -43 143l2 666q0 109 77 185.5t185 76.5q78 0 144 -43l24 71h123l-59 -168q31 -57 31 -122v-666q0 -109 -76 -185.5t-185 -76.5q-70 0 -129 33l-34 -97h-123zM231 487l166 471q-25 49 -80 50q-35 0 -60.5 -26t-25.5 -60v-435zM250 195 q27 -33 67 -33q37 0 63 25.5t26 60.5v385z" />
<glyph unicode="&#xf9;" horiz-adv-x="641" d="M55 219v952h174v-931q0 -33 23 -54q29 -27 74 -20q41 6 77 53v952h175v-1171h-175v63q-57 -74 -153 -73q-68 0 -113 30.5t-63.5 68.5t-18.5 130zM88 1468l121 142l303 -254l-80 -119z" />
<glyph unicode="&#xfa;" horiz-adv-x="641" d="M53 219v952h174v-931q0 -33 23 -54q29 -27 74 -20q41 6 77 53v952h175v-1171h-175v63q-57 -74 -153 -73q-68 0 -113 30.5t-63.5 68.5t-18.5 130zM127 1356l303 254l121 -142l-344 -231z" />
<glyph unicode="&#xfb;" horiz-adv-x="641" d="M41 1368l271 354l282 -366l-120 -119l-164 239l-170 -239zM55 219v952h174v-931q0 -33 23 -54q29 -27 74 -20q41 6 77 53v952h175v-1171h-175v63q-57 -74 -153 -73q-68 0 -113 30.5t-63.5 68.5t-18.5 130z" />
<glyph unicode="&#xfc;" horiz-adv-x="641" d="M49 219v952h174v-931q0 -33 23 -54q29 -27 74 -20q41 6 77 53v952h175v-1171h-175v63q-57 -74 -153 -73q-68 0 -113 30.5t-63.5 68.5t-18.5 130zM54 1255v195h194v-195h-194zM379 1255v195h195v-195h-195z" />
<glyph unicode="&#xfd;" horiz-adv-x="661" d="M71 -57h175q0 -35 25.5 -60.5t60.5 -25.5q37 0 62.5 24.5t25.5 61.5v120q-59 -74 -154 -73q-70 0 -111 28q-49 33 -66.5 71t-17.5 130v952h175v-931q0 -33 22 -54q29 -27 74 -20q39 6 78 53v952h174v-1228q0 -106 -76 -171t-186 -65q-111 0 -186 65.5t-75 170.5z M201 1356l303 254l121 -142l-344 -231z" />
<glyph unicode="&#xfe;" horiz-adv-x="622" d="M55 -293v1759h174v-358q59 74 154 74q70 0 111 -29q49 -33 65 -70q12 -27 16 -71q2 -29 3 -60v-733q0 -92 -17.5 -130t-63.5 -68.5t-114 -30.5q-94 0 -154 73v-356h-174zM229 219q37 -47 78 -53q45 -6 74 20q23 20 22 54v624v68q0 33 -22 53q-29 27 -74 21 q-39 -6 -78 -54v-733z" />
<glyph unicode="&#xff;" horiz-adv-x="661" d="M69 -57h175q0 -35 25.5 -60.5t60.5 -25.5q37 0 62.5 24.5t25.5 61.5v120q-59 -74 -154 -73q-70 0 -111 28q-49 33 -66.5 71t-17.5 130v952h175v-931q0 -33 22 -54q29 -27 74 -20q39 6 78 53v952h174v-1228q0 -106 -76 -171t-186 -65q-111 0 -186 65.5t-75 170.5zM78 1255 v195h194v-195h-194zM403 1255v195h195v-195h-195z" />
<glyph unicode="&#x178;" d="M63 662l2 804h176v-809q0 -35 26 -60.5t63 -25.5q35 0 60.5 26t25.5 60v809h174v-804q0 -86 -48.5 -154t-125.5 -94v-414h-175v414q-78 29 -128 96.5t-50 151.5zM78 1591v195h194v-195h-194zM403 1591v195h195v-195h-195z" />
<glyph unicode="&#x2c6;" d="M-154 1704l271 354l282 -366l-120 -119l-164 239l-170 -239z" />
<glyph unicode="&#x2dc;" d="M-113 1575q0 262 162 262q80 0 141.5 -63.5t67.5 -63.5q53 0 53 131h144q0 -274 -197 -274q-72 0 -125 56t-74 50q-29 -6 -28 -98h-144z" />
<glyph unicode="&#x2000;" horiz-adv-x="1029" />
<glyph unicode="&#x2001;" horiz-adv-x="2058" />
<glyph unicode="&#x2002;" horiz-adv-x="1029" />
<glyph unicode="&#x2003;" horiz-adv-x="2058" />
<glyph unicode="&#x2004;" horiz-adv-x="686" />
<glyph unicode="&#x2005;" horiz-adv-x="514" />
<glyph unicode="&#x2006;" horiz-adv-x="343" />
<glyph unicode="&#x2007;" horiz-adv-x="343" />
<glyph unicode="&#x2008;" horiz-adv-x="257" />
<glyph unicode="&#x2009;" horiz-adv-x="411" />
<glyph unicode="&#x200a;" horiz-adv-x="114" />
<glyph unicode="&#x2010;" d="M61 539v174h514v-174h-514z" />
<glyph unicode="&#x2011;" d="M61 539v174h514v-174h-514z" />
<glyph unicode="&#x2012;" d="M61 539v174h514v-174h-514z" />
<glyph unicode="&#x2013;" horiz-adv-x="622" d="M33 580v133h526v-133h-526z" />
<glyph unicode="&#x2014;" horiz-adv-x="976" d="M33 580v133h880v-133h-880z" />
<glyph unicode="&#x2018;" horiz-adv-x="374" d="M43 965l154 501h143l-102 -501h-195z" />
<glyph unicode="&#x2019;" horiz-adv-x="346" d="M29 963l102 501h195l-154 -501h-143z" />
<glyph unicode="&#x201c;" horiz-adv-x="677" d="M39 965l154 501h143l-103 -501h-194zM346 965l154 501h143l-102 -501h-195z" />
<glyph unicode="&#x201d;" horiz-adv-x="655" d="M31 963l102 501h195l-154 -501h-143zM338 963l102 501h195l-154 -501h-143z" />
<glyph unicode="&#x2022;" horiz-adv-x="634" d="M45 590l2 31q6 111 81 186.5t181 75.5q109 0 185.5 -77t76.5 -185v-31q0 -109 -75.5 -185.5t-184.5 -76.5q-111 0 -192.5 77.5t-73.5 184.5z" />
<glyph unicode="&#x2026;" horiz-adv-x="1343" d="M61 0v195h195v-195h-195zM573 0v195h195v-195h-195zM1085 0v195h195v-195h-195z" />
<glyph unicode="&#x202f;" horiz-adv-x="411" />
<glyph unicode="&#x2039;" horiz-adv-x="559" d="M37 571l301 336h184l-299 -338l299 -313h-184z" />
<glyph unicode="&#x203a;" horiz-adv-x="571" d="M43 256l299 313l-299 338h184l301 -336l-301 -315h-184z" />
<glyph unicode="&#x205f;" horiz-adv-x="514" />
<glyph unicode="&#x20ac;" horiz-adv-x="808" d="M47 455v174h186v82h-104v174h104l3 329q0 109 75.5 186t184.5 77t185.5 -77t76.5 -186v-712h-174v717q0 35 -24.5 60.5t-61.5 25.5t-61.5 -26t-24.5 -60v-334h98v-174h-98v-82h98v-174h-98v-207q0 -35 24.5 -60.5t61.5 -25.5t61.5 25.5t24.5 60.5v65h174v-61 q0 -109 -76 -185.5t-184 -76.5q-109 0 -187 76.5t-78 185.5v203h-186z" />
<glyph unicode="&#x2122;" horiz-adv-x="806" d="M55 1393v73h236v-73h-78v-584h-78v584h-80zM340 809v545q0 49 34 82.5t83 33.5q61 0 80 -43q18 43 77 43q49 0 84 -33.5t35 -82.5v-545h-80v547q0 39 -39 39t-39 -39v-547h-77v547q0 39 -41 39q-39 0 -39 -39v-547h-78z" />
<glyph unicode="&#x25fc;" horiz-adv-x="1177" d="M0 0v1178h1178v-1178h-1178z" />
</font>
</defs>
</svg>
